<svg xmlns="http://www.w3.org/2000/svg" width="34.101" height="30.308" viewBox="0 0 34.101 30.308"><g transform="translate(-5 -10)"><ellipse cx="2.273" cy="2.273" rx="2.273" ry="2.273" transform="translate(28.11 35.762)" fill="#32c995"/><ellipse cx="2.273" cy="2.273" rx="2.273" ry="2.273" transform="translate(19.396 35.762)" fill="#32c995"/><path d="M18.449,29.132H33.83a.982.982,0,0,0,.909-.644L39.059,15.8a.994.994,0,0,0-.606-1.212.834.834,0,0,0-.3-.038H14.7l-1.212-3.864A.966.966,0,0,0,12.577,10H5.947a.947.947,0,1,0,0,1.894H11.9l5.039,16.139-1.1,1.4A2.765,2.765,0,0,0,16.29,33.3a2.836,2.836,0,0,0,1.7.606H34.74a.938.938,0,0,0,.947-.947.971.971,0,0,0-.947-.985H17.995a.857.857,0,0,1-.871-.871.905.905,0,0,1,.189-.53Z" fill="#32c995"/></g></svg>