<svg xmlns="http://www.w3.org/2000/svg" width="42.853" height="42.267" viewBox="0 0 42.853 42.267">
  <g id="_Farmas_Cefas_-_GPS_Localização" data-name="_Farmas Cefas - GPS Localização" transform="translate(-19.785 -22.885)">
    <g id="Group_740" data-name="Group 740" transform="translate(24.157 27.321)">
      <g id="Group_739" data-name="Group 739" transform="translate(0)">
        <path id="Path_2508" data-name="Path 2508" d="M97.555,87.337c0,.391-.019.782-.047,1.172-.019.2-.037.382-.056.577-.009.074-.047.354-.009.074-.019.1-.028.214-.047.316a15.7,15.7,0,0,1-.549,2.261c-.112.354-.242.707-.382,1.051.1-.251-.065.149-.1.233-.084.186-.177.372-.27.558a16.593,16.593,0,0,1-1.172,1.945c-.1.149-.214.3-.326.447.167-.214-.149.177-.2.242-.251.3-.5.586-.772.865-.251.261-.521.512-.791.763-.121.112-.242.214-.372.316-.065.056-.512.409-.288.242a15.1,15.1,0,0,1-1.9,1.238c-.326.177-.651.344-.986.5-.056.028-.558.242-.288.13-.2.074-.382.149-.577.223a14.7,14.7,0,0,1-2.168.6c-.2.047-.419.084-.623.112-.084.009-.167.028-.251.037.261-.037.047-.009-.009,0-.428.047-.856.084-1.293.093a16.289,16.289,0,0,1-2.336-.093c-.279-.028-.065-.009-.009,0-.1-.019-.214-.028-.316-.047-.186-.028-.372-.065-.558-.1-.372-.074-.735-.167-1.1-.27s-.716-.214-1.07-.344c-.177-.065-.344-.13-.521-.2-.223-.093.3.14-.065-.028-.112-.047-.223-.1-.335-.149a13.961,13.961,0,0,1-1.926-1.079c-.307-.2-.6-.409-.893-.633.214.167-.13-.1-.2-.158-.158-.13-.307-.261-.465-.4a15.043,15.043,0,0,1-1.6-1.666c-.056-.065-.326-.409-.158-.2-.112-.149-.223-.3-.326-.447-.223-.316-.437-.642-.633-.977-.186-.316-.372-.642-.53-.968-.074-.149-.149-.3-.214-.447-.047-.093-.084-.186-.13-.279-.028-.056-.047-.112-.074-.167.056.121.056.14.019.047a15.429,15.429,0,0,1-.7-2.2c-.084-.354-.149-.7-.214-1.051-.019-.1-.037-.214-.047-.316.009.056.028.27,0-.009-.028-.214-.047-.428-.065-.642a16.029,16.029,0,0,1,.009-2.41c.019-.2.037-.382.056-.577.009-.056.037-.279,0-.009.009-.084.028-.167.037-.251.065-.419.149-.828.251-1.238a15.416,15.416,0,0,1,.7-2.131c-.1.261.093-.214.13-.288.074-.167.158-.335.242-.5.177-.344.363-.689.568-1.024.177-.3.372-.586.568-.875.121-.167.233-.335.363-.493-.037.047-.158.2.009-.009.074-.093.158-.186.233-.279A15.224,15.224,0,0,1,74.3,76.869l.419-.363c.065-.047.456-.363.242-.2q.461-.349.949-.67a15.916,15.916,0,0,1,1.991-1.1c.084-.037.484-.2.233-.1.177-.065.344-.14.521-.2.372-.14.744-.261,1.126-.363.363-.1.735-.2,1.1-.27.167-.037.335-.065.5-.093.1-.019.214-.037.316-.047s.084-.009-.056.009a1.388,1.388,0,0,1,.2-.019,14.8,14.8,0,0,1,2.4-.084c.363.019.735.047,1.1.084.074.009.354.047.074.009.084.009.167.028.251.037l.623.112a15.631,15.631,0,0,1,2.233.633c.177.065.344.13.521.2-.251-.1.158.065.233.1.372.167.735.354,1.1.558a14.954,14.954,0,0,1,1.842,1.21c-.233-.177.2.158.242.2.14.121.279.233.419.363.288.261.568.521.828.8.242.251.475.5.689.772.065.074.13.158.2.233.047.056.2.27.047.056.121.158.242.326.363.493a16.928,16.928,0,0,1,1.135,1.889c.084.167.167.335.242.5.037.074.233.549.13.288.149.363.279.735.4,1.107a14.791,14.791,0,0,1,.54,2.261c.009.084.028.167.037.251-.037-.261-.009-.047,0,.009.019.214.047.428.065.642-.009.372,0,.763.009,1.154a1.4,1.4,0,1,0,2.792,0A16.831,16.831,0,0,0,97.3,77.7a17.155,17.155,0,0,0-8.012-6.141,16.788,16.788,0,1,0,10.831,18.461,17.379,17.379,0,0,0,.223-2.689,1.412,1.412,0,0,0-1.4-1.4A1.426,1.426,0,0,0,97.555,87.337Z" transform="translate(-66.771 -70.556)" fill="#fff"/>
      </g>
    </g>
    <g id="Group_742" data-name="Group 742" transform="translate(32.286 35.423)">
      <circle id="Ellipse_4" data-name="Ellipse 4" cx="7.556" cy="7.556" r="7.556" transform="translate(1.095 1.123)" fill="#fff"/>
      <g id="Group_741" data-name="Group 741" transform="translate(0 0)">
        <path id="Path_2509" data-name="Path 2509" d="M169.211,166.311a6.421,6.421,0,0,1-1.2,3.75,5.11,5.11,0,0,1-.6.707c-.112.112-.223.223-.344.335-.056.056-.121.112-.177.158.009-.009-.261.214-.149.121a7.562,7.562,0,0,1-.81.53,4.5,4.5,0,0,1-.9.419,6.428,6.428,0,1,1-1.014-12.339,6.383,6.383,0,0,1,3.731,2.215,6.608,6.608,0,0,1,1.461,4.1,1.131,1.131,0,0,0,2.261,0,8.79,8.79,0,0,0-5.788-8.179,8.693,8.693,0,0,0-9.519,2.578,8.678,8.678,0,1,0,15.307,5.6A1.131,1.131,0,0,0,169.211,166.311Z" transform="translate(-154.131 -157.632)" fill="#fff"/>
      </g>
    </g>
    <g id="Group_744" data-name="Group 744" transform="translate(39.56 22.885)">
      <g id="Group_743" data-name="Group 743" transform="translate(0 0)">
        <path id="Path_2510" data-name="Path 2510" d="M235.092,28.749V24.282a1.4,1.4,0,1,0-2.792,0v4.466a1.4,1.4,0,1,0,2.792,0Z" transform="translate(-232.3 -22.885)" fill="#fff"/>
      </g>
    </g>
    <g id="Group_746" data-name="Group 746" transform="translate(54.94 42.706)">
      <g id="Group_745" data-name="Group 745" transform="translate(0 0)">
        <path id="Path_2511" data-name="Path 2511" d="M398.982,238.692h4.9a1.4,1.4,0,1,0,0-2.792h-4.9a1.4,1.4,0,1,0,0,2.792Z" transform="translate(-397.585 -235.9)" fill="#fff"/>
      </g>
    </g>
    <g id="Group_748" data-name="Group 748" transform="translate(19.785 42.706)">
      <g id="Group_747" data-name="Group 747" transform="translate(0 0)">
        <path id="Path_2512" data-name="Path 2512" d="M25.546,235.9H21.182a1.4,1.4,0,1,0,0,2.792h4.364a1.4,1.4,0,1,0,0-2.792Z" transform="translate(-19.785 -235.9)" fill="#fff"/>
      </g>
    </g>
    <g id="Group_750" data-name="Group 750" transform="translate(39.541 58.096)">
      <g id="Group_749" data-name="Group 749" transform="translate(0)">
        <path id="Path_2513" data-name="Path 2513" d="M232.1,402.682c.009,1.424.009,2.838.019,4.262a1.4,1.4,0,1,0,2.792,0c-.009-1.424-.009-2.838-.019-4.262a1.4,1.4,0,1,0-2.792,0Z" transform="translate(-232.1 -401.285)" fill="#fff"/>
      </g>
    </g>
  </g>
</svg>
