<svg xmlns="http://www.w3.org/2000/svg" width="30" height="30" viewBox="0 0 30 30"><g transform="translate(-35.3 -19.9)"><path d="M64.81,24.634,50.545,19.95a.362.362,0,0,0-.245-.05.525.525,0,0,0-.245.05L35.79,24.684a.749.749,0,0,0-.49.7V44.418a.84.84,0,0,0,.539.748L50.055,49.9h.49L64.81,45.116a.767.767,0,0,0,.49-.748V25.382A.873.873,0,0,0,64.81,24.634Zm-15.2,23.322h-.686L36.771,43.87V26.378l5.686,1.844V37.89a.735.735,0,1,0,1.471,0V28.77l5.686,1.844ZM50.3,29.368l-4.853-1.645,3.725-1.346a.7.7,0,0,0,.441-.4.548.548,0,0,0,0-.548.74.74,0,0,0-.98-.449l-5.392,1.993-4.853-1.645L50.3,21.345l11.912,3.987Zm13.529,14.5-5.686,1.844v-6.03a.76.76,0,0,0-.735-.748.69.69,0,0,0-.686.748v6.578l-5.686,1.844V30.664l12.794-4.286Z" fill="#32c995"/></g></svg>