<svg xmlns="http://www.w3.org/2000/svg" width="37.464" height="40" viewBox="0 0 37.464 40"><g transform="translate(-17.5 -15.3)"><path d="M46.833,23.967A4.333,4.333,0,1,0,42.5,19.633,4.365,4.365,0,0,0,46.833,23.967Zm0-7.511a3.178,3.178,0,1,1-3.178,3.178A3.206,3.206,0,0,1,46.833,16.456Z" transform="translate(-10.601)" fill="#32c995"/><path d="M40.889,45.089v10.4h8.089v-10.4A2.861,2.861,0,0,0,51.867,42.2V34.689A2.861,2.861,0,0,0,48.978,31.8H40.889A2.861,2.861,0,0,0,38,34.689V42.2A2.9,2.9,0,0,0,40.889,45.089Zm-1.733-10.4a1.7,1.7,0,0,1,1.733-1.733h8.089a1.7,1.7,0,0,1,1.733,1.733V42.2a1.7,1.7,0,0,1-1.733,1.733v-5.2H47.822v15.6H45.511V46.244H44.355v8.089H42.044v-15.6H40.889v5.2A1.7,1.7,0,0,1,39.156,42.2Z" transform="translate(-8.701 -7.023)" fill="#32c995"/><path d="M34.638,66.849a.676.676,0,0,0,.518-.636.618.618,0,0,0-.633-.52C31.931,65.982,26,66.849,26,69.333c0,2.542,6.968,3.929,13.821,3.929s13.821-1.329,13.821-3.929c0-2.427-5.874-3.351-8.408-3.64a.581.581,0,0,0-.115,1.156c5.586.636,7.371,1.907,7.371,2.484,0,.982-4.377,2.773-12.669,2.773s-12.669-1.849-12.669-2.773C27.152,68.756,28.995,67.427,34.638,66.849Z" transform="translate(-3.589 -21.371)" fill="#32c995"/><path d="M41.938,61.858a.581.581,0,0,0-.115,1.156c7.9.867,11.988,3.351,11.988,5.316,0,2.658-7.2,5.6-17.579,5.6s-17.579-3-17.579-5.662c0-2.022,4.207-4.507,12.219-5.316a.677.677,0,0,0,.519-.636c0-.289-.346-.52-.634-.52-8.069.867-13.256,3.409-13.256,6.471,0,4.218,9.51,6.76,18.732,6.76s18.732-2.484,18.732-6.76C54.964,65.267,49.834,62.724,41.938,61.858Z" transform="translate(0 -19.731)" fill="#32c995"/></g></svg>