<svg xmlns="http://www.w3.org/2000/svg" width="29.981" height="35" viewBox="0 0 29.981 35"><g transform="translate(-9 -5.1)"><g transform="translate(9 5.1)"><path d="M36.244,16.571l1.043-1.043a2.574,2.574,0,0,0,.782-1.825,2.367,2.367,0,0,0-.782-1.825,2.574,2.574,0,0,0-1.825-.782,2.367,2.367,0,0,0-1.825.782l-1.043.978a14.854,14.854,0,0,0-6.648-2.607V9.011H26.6a1.92,1.92,0,0,0,1.955-1.955,1.775,1.775,0,0,0-.587-1.369A1.876,1.876,0,0,0,26.6,5.1H21.384a1.92,1.92,0,0,0-1.955,1.955,1.775,1.775,0,0,0,.587,1.369,1.876,1.876,0,0,0,1.369.587h.652v1.238a14.99,14.99,0,1,0,16.946,14.86A14.352,14.352,0,0,0,36.244,16.571Zm-2.607-2.933.912-.912a1.26,1.26,0,0,1,1.825,0,1.26,1.26,0,0,1,0,1.825l-.912.912-.2-.2c-.2-.2-.326-.391-.521-.587l-.391-.391a3.264,3.264,0,0,0-.521-.456Zm-10.3-3.454V8.424a.616.616,0,0,0-.652-.652h-1.3a.592.592,0,0,1-.456-.2.973.973,0,0,1-.2-.456.616.616,0,0,1,.652-.652H26.6a.668.668,0,0,1,.652.652.616.616,0,0,1-.652.652h-1.3a.616.616,0,0,0-.652.652v1.76h-.652A2.185,2.185,0,0,0,23.339,10.184ZM23.991,38.8a13.687,13.687,0,1,1,8.669-24.246.064.064,0,0,1,.065.065,11.234,11.234,0,0,1,1.76,1.76l.13.13A13.668,13.668,0,0,1,23.991,38.8Z" transform="translate(-9 -5.1)" fill="#32c995"/><path d="M25.754,17.8A11.653,11.653,0,1,0,37.508,29.453,11.738,11.738,0,0,0,25.754,17.8Zm0,22.011A10.358,10.358,0,1,1,36.2,29.453,10.434,10.434,0,0,1,25.754,39.811Z" transform="translate(-10.763 -9.343)" fill="#32c995"/><path d="M31.647,27a.612.612,0,0,0-.647.647V32.7a.647.647,0,0,0,1.295,0v-5.05A.649.649,0,0,0,31.647,27Z" transform="translate(-16.657 -12.705)" fill="#32c995"/><circle cx="0.647" cy="0.647" r="0.647" transform="translate(14.343 11.279)" fill="#32c995"/><circle cx="0.647" cy="0.647" r="0.647" transform="translate(20.081 13.626)" fill="#32c995"/><circle cx="0.647" cy="0.647" r="0.647" transform="translate(22.428 19.363)" fill="#32c995"/><circle cx="0.647" cy="0.647" r="0.647" transform="translate(20.081 25.1)" fill="#32c995"/><circle cx="0.647" cy="0.647" r="0.647" transform="translate(14.343 27.512)" fill="#32c995"/><circle cx="0.647" cy="0.647" r="0.647" transform="translate(8.606 25.1)" fill="#32c995"/><circle cx="0.647" cy="0.647" r="0.647" transform="translate(6.259 19.363)" fill="#32c995"/><circle cx="0.647" cy="0.647" r="0.647" transform="translate(8.606 13.626)" fill="#32c995"/></g></g></svg>