<svg xmlns="http://www.w3.org/2000/svg" width="205.526" height="555.102" viewBox="0 0 205.526 555.102">
  <g id="OBJECTS" transform="translate(-67.061 -51.015)">
    <path id="Rectangle_872" data-name="Rectangle 872" d="M10.45,0H150.3A10.451,10.451,0,0,1,160.75,10.451V435.458A10.448,10.448,0,0,1,150.3,445.906H10.449A10.449,10.449,0,0,1,0,435.456V10.45A10.45,10.45,0,0,1,10.45,0Z" transform="translate(90.522 70.66)" fill="#fff"/>
    <path id="Path_2514" data-name="Path 2514" d="M183.919,462.557c39.673,0,72.033-5.554,72.033-12.366s-32.36-12.369-72.033-12.369-72.036,5.557-72.036,12.369S144.241,462.557,183.919,462.557Z" transform="translate(16.635 143.56)" fill="#ff3900" fill-rule="evenodd"/>
    <path id="Path_2515" data-name="Path 2515" d="M157.17,148.1a59.4,59.4,0,0,0-14,13.884c-6.96,9.421-18.339,23.692-28.226,35.5-10.626,12.69-8.833,15.761-17.054,2.254-8.646-14.221-13.839-26.155-16.96-32.226-.481-.934-2.546-5.434-4.308-4.016a19.934,19.934,0,0,1-3.871,2.855c-1.829.932-3.636-.033-4.07,2.672-.078,5.929,5.774,27.032,27.457,57.914.147.158-2.321-2.838.433.485s10.059,4.181,12.9,1.3l.324-.208c8.593-8.272,26.7-22.766,37.926-36.64,10.817-13.37,14.821-26.1,19.421-35.574l.014-.027.244-.52.085-.177.155-.333,0-.01.143-.311.082-.182.053-.129h0a17.908,17.908,0,0,0,1.677-5.024l-3.518,3.908Z" transform="translate(0.603 36.034)" fill="#f2f0f0" fill-rule="evenodd"/>
    <path id="Path_2516" data-name="Path 2516" d="M157.169,148.1a59.4,59.4,0,0,0-14,13.884c-1.862,2.519-4.039,5.387-6.42,8.46,1.481,9.617-.935,26.307-8.422,34.754-9.069,10.231-22.44,23.485-30.923,15.347s-22.2-39.523-23.865-46.782c-.99-4.311,3.314-6.23,6.967-7.078-.817-1.574-2.453-4.341-3.886-3.187a20.107,20.107,0,0,1-3.871,2.855c-1.829.932-3.636-.032-4.067,2.672-.081,5.929,5.771,27.032,27.454,57.914.147.158-2.321-2.838.433.485s10.059,4.181,12.9,1.3l.324-.208c8.593-8.272,26.7-22.766,37.926-36.64,10.817-13.371,14.821-26.1,19.421-35.574l.016-.027.244-.52.082-.177.155-.333,0-.01.143-.31.08-.184.056-.13h0a17.892,17.892,0,0,0,1.677-5.024l-3.518,3.909Z" transform="translate(0.604 36.034)" fill="#cecbcb" fill-rule="evenodd"/>
    <path id="Path_2517" data-name="Path 2517" d="M205.832,168.365l-11.848-14.982-2.622-2.247-26.319-9.9-12.183,1.9h0s-12.151,5.915-13.177,5.862a1.485,1.485,0,0,1-.514-.195l-7.185,20.669s-4.359,29.944-4.979,31.981-1.149,30.759,1.117,34.883.343,10.515,9.065,13.2,27.361,7.873,39.881-5.36,15.125-20.578,18.254-25.049S205.832,168.365,205.832,168.365Z" transform="translate(22.049 33.485)" fill="#bc2300" fill-rule="evenodd"/>
    <path id="Path_2518" data-name="Path 2518" d="M134.419,163.87c3.912-2.461,6.148-.448,10.4,4.135s8.275,4.137,10.621,5.145,2.268,43.473-13.079,49.975c-5.678,2.406-9.2-.092-11.4-5.146C127.029,208.9,124.245,170.262,134.419,163.87Z" transform="translate(22.393 41.492)" fill="#ff3900" fill-rule="evenodd"/>
    <path id="Path_2519" data-name="Path 2519" d="M150.983,154.982l-.728,1.268s-10.436,31.561-10.005,56.852,13.186,3.672,12.972,1.512-2.478-43.338-.267-58.2C152.954,156.414,152.789,154.415,150.983,154.982Z" transform="translate(27.159 38.549)" fill="#183257" fill-rule="evenodd"/>
    <path id="Path_2520" data-name="Path 2520" d="M150.983,154.982l-.728,1.268s-.383,1.153-.994,3.188c.777.558,1.714,1.885,1.682,5.057-.042,4.463.3,21.886-9.542,30.755a124.574,124.574,0,0,0-1.152,17.852c.435,25.291,13.186,3.672,12.972,1.512s-2.478-43.338-.267-58.2C152.954,156.414,152.788,154.415,150.983,154.982Z" transform="translate(27.159 38.549)" fill="#111a39" fill-rule="evenodd"/>
    <path id="Path_2521" data-name="Path 2521" d="M126.107,319.482q.7,6.816,1.477,14.006c5.19,47.554,15.133,133.855,14.917,142.286s12.827,3.553,14.45,1.172c1.268-1.863-1.955-105.385-2.786-157.465Zm43.968,0c3.085,21.009,4.82,47.731,6.14,65.013,2.809,36.747,7.938,92.895,7.569,95.868s11.456,5.945,13.832,1.19c0,0,.487-.7.324-3.243-.1-1.564.825-89.817.843-158.828Z" transform="translate(21.914 99.639)" fill="#c1bab9" fill-rule="evenodd"/>
    <path id="Path_2522" data-name="Path 2522" d="M186.35,319.482c2.02,39.064,4.1,135.96,2.889,146.449-1.327,11.478-8.4,10.522-10.685.834.6,7.681.93,12.757.825,13.6-.373,2.974,11.456,5.945,13.832,1.19,0,0,.487-.7.324-3.243-.1-1.564.825-89.817.843-158.828ZM137.977,472.625c.093,1.449.133,2.522.118,3.15-.215,8.431,12.827,3.553,14.45,1.172,1.268-1.863-1.955-105.385-2.786-157.465h-7.227c1.034,47.64,6.114,137.6,5.954,144.507C148.311,471.506,143.892,474.5,137.977,472.625Z" transform="translate(26.32 99.639)" fill="#a29a99" fill-rule="evenodd"/>
    <path id="Path_2523" data-name="Path 2523" d="M152.277,143.656s-10.321,24.155-6.429,51.826a243.72,243.72,0,0,0,12.1,48.851l11.623,142.3-12.051.272,3.62,9.927-5.112-1.815s-7.935,14.367-22.415,15.228-12.324-8.212-10.814-15.667,3.15-118.9.34-149.592S111.682,149.016,152.277,143.656Z" transform="translate(19.798 34.383)" fill="#f2f0f0" fill-rule="evenodd"/>
    <path id="Path_2524" data-name="Path 2524" d="M144.45,178.259c.121,2.837-1.366-6.628.787,8.677s12.1,48.851,12.1,48.851L168.962,372.72q-1.555,2.742-3.262,5.441l-8.789.2,3,8.242-.871,1.156-3.625-1.286S147.487,400.838,133,401.7c-6.417.384-9.568-1.187-10.953-3.7,8.581,1.2,12.139-94.783,18.432-134.338s-5.749-70.037-7.156-77.548a71.939,71.939,0,0,1-1.44-10.563l8.741-8.859,1.041,11.168S142.72,177.994,144.45,178.259Z" transform="translate(20.409 42.93)" fill="#cecbcb" fill-rule="evenodd"/>
    <path id="Path_2525" data-name="Path 2525" d="M200.2,399.758c-4.159,9.769-28.491,15.613-41.454,16.5-27.519,1.892-18.7-146.053-17.356-161.189,3.99-44.843,1.992-74.863,32.731-110.308,7.186,1.351,18.468,7.441,18.468,7.441,5.7,2.916,12.793,8.131,13.739,14.59,1.344,9.166-8.836,40.926-15.094,60.822C180.755,260.933,205.862,386.469,200.2,399.758Z" transform="translate(26.695 34.794)" fill="#f2f0f0" fill-rule="evenodd"/>
    <path id="Path_2526" data-name="Path 2526" d="M192.17,388.951c-3.24,7.613-18.73,12.841-31.547,15.2,16.31-10.353,15.962-123.792,11.8-154.321s6.5-75.945,6.5-75.945l5.176,4.4,2.084,9.739c-1.259,4.63,4.822,3.553,3.377,8.346-2.188,7.264-4.456,14.405-6.355,20.446C172.725,250.125,197.832,375.662,192.17,388.951Z" transform="translate(34.725 45.601)" fill="#cecbcb" fill-rule="evenodd"/>
    <path id="Path_2527" data-name="Path 2527" d="M168.535,123.112l-.307,7.189v16.96c0,1.082,1.006,2.639,2.785,4-2.652,2.877-9.185,9.557-13.289,10.192-5.243.812-11.3-1.514-12.808-2.809-1.056-.909-1.157-5.6-1.778-8.227.487-.136-.067.005.425-.156a7.758,7.758,0,0,0,3.278-1.884c2.458-2.683,2.346-14.648-.112-17.777S168.535,123.112,168.535,123.112Z" transform="translate(28.235 26.758)" fill="#ed9072" fill-rule="evenodd"/>
    <path id="Path_2528" data-name="Path 2528" d="M147.378,149.1l2.967-1.6s.252,3.276.6,3.384.821-2.057,2.1-2.84,4.707,3.891,4.707,3.891-1.274,3.65-3.111,3.92-7.37.882-7.44-.776S147.378,149.1,147.378,149.1Z" transform="translate(29.741 35.81)" fill="#7f1200" fill-rule="evenodd"/>
    <path id="Path_2529" data-name="Path 2529" d="M150.15,152.127a11.573,11.573,0,0,0,4.81-1.595,2.956,2.956,0,0,1,3.809.351l-2.109,2.39-.16,1.013s-3.147-.553-5.139.9S150.15,152.127,150.15,152.127Z" transform="translate(30.781 36.733)" fill="#111a39" fill-rule="evenodd"/>
    <path id="Path_2530" data-name="Path 2530" d="M148.64,144.671s-14.161,34.49.214,81.251l-.043,3.569S136.856,207.727,131.239,190c0,0-.491-1.677.7-2.432s3.621-2.46,4.97-2.46-.7-1.755-6,.513a2.355,2.355,0,0,1-1.673-1.458c-.387-1.19,1.2-21.024,15.32-39.559,0,0,.207-.514,1.261-.81S148.98,142.9,148.64,144.671Z" transform="translate(23.058 34.308)" fill="#fff" fill-rule="evenodd"/>
    <path id="Path_2531" data-name="Path 2531" d="M166.746,141.134s-3.727,6.7-13.617,8.43a2.614,2.614,0,0,0-2.107,2.431c0,2,5.834,7.407,6.376,10.322s12.436-12.263,13.189-17.021C170.587,145.3,168.637,141.674,166.746,141.134Z" transform="translate(31.161 33.447)" fill="#ff3900" fill-rule="evenodd"/>
    <path id="Path_2532" data-name="Path 2532" d="M147.168,151.924a4.268,4.268,0,0,1,2.054-.893c.919,0,2.6,0,3.3.621a6.492,6.492,0,0,1,1.593,2.515c.062.461-2.755,3.244-3.62,3.676s-1.781-.27-2.7-.163S146.6,152.886,147.168,151.924Z" transform="translate(29.622 37.12)" fill="#183257" fill-rule="evenodd"/>
    <path id="Path_2533" data-name="Path 2533" d="M151.415,151.158a2.316,2.316,0,0,1,1.009.447,6.492,6.492,0,0,1,1.593,2.515c.062.461-2.755,3.244-3.62,3.676s-1.781-.27-2.7-.163c-.236.027-.424-.263-.57-.734C153.707,155.894,151.859,151.948,151.415,151.158Z" transform="translate(29.716 37.167)" fill="#111a39" fill-rule="evenodd"/>
    <path id="Path_2534" data-name="Path 2534" d="M150.277,435.618a8.12,8.12,0,0,0-5.918-1.148c-3.07.79-20.819,9.172-23.663,10.318s-5.841,5.517-3.594,8.024,17.222,2.221,25.159.646,14.079-.5,17-.287,6.342-6.115,3.518-15.262S160.833,437.265,150.277,435.618Z" transform="translate(18.28 141.992)" fill="#3a4f77" fill-rule="evenodd"/>
    <path id="Path_2535" data-name="Path 2535" d="M142.937,435.618a8.116,8.116,0,0,0-5.918-1.148c-.23.059-.547.163-.927.3,2.544.573,7.654,2.125,8.657,5.505.957,3.206,1.532,8.729-2.021,12.344a78.17,78.17,0,0,1,9.193.548c2.922.214,6.342-6.114,3.518-15.259S153.5,437.265,142.937,435.618Z" transform="translate(25.62 141.992)" fill="#231f20" fill-rule="evenodd"/>
    <path id="Path_2536" data-name="Path 2536" d="M116.625,445.544a3.512,3.512,0,0,0,.477,3.713c2.243,2.508,17.222,2.221,25.159.646s14.079-.5,17-.287c1.837.134,3.875-2.321,4.426-6.44-2.175,3.012-5.934,3.267-13.119,2.7-7.437-.585-14.256,1.364-23.626,2.239C120.393,448.732,117.672,446.775,116.625,445.544Z" transform="translate(18.28 145.547)" fill="#fff" fill-rule="evenodd"/>
    <path id="Path_2537" data-name="Path 2537" d="M140.932,449.066a78.17,78.17,0,0,1,9.194.548c1.837.136,3.875-2.32,4.426-6.439-2.018,2.8-5.406,3.217-11.638,2.807A9.018,9.018,0,0,1,140.932,449.066Z" transform="translate(27.417 145.547)" fill="#d9d4d6" fill-rule="evenodd"/>
    <path id="Path_2538" data-name="Path 2538" d="M169.758,437.671s5.158-5.947,11.464-1.218a9.115,9.115,0,0,1,4.729,4.3c1.289,3.01,3.723,4.37,4.155,7.666s-.573,5.877-5.088,5.877h-7.308c-3.222,0-8.021.5-9.671-3.513s0-7.666-.573-9.742S169.758,437.671,169.758,437.671Z" transform="translate(37.197 142.374)" fill="#3a4f77" fill-rule="evenodd"/>
    <path id="Path_2539" data-name="Path 2539" d="M169.729,437.671s5.158-5.944,11.461-1.218a9.108,9.108,0,0,1,4.732,4.3c1.289,3.006,3.725,4.37,4.155,7.665s-.573,5.877-5.088,5.877H180.96c6.433-5.269.89-15.557-4.257-16.458-3.425-.6-7.024,1.39-9.306,3.03C167.021,438.888,169.729,437.671,169.729,437.671Z" transform="translate(37.226 142.375)" fill="#231f20" fill-rule="evenodd"/>
    <path id="Path_2540" data-name="Path 2540" d="M190.149,445.392c.222,2.99-.927,5.252-5.153,5.252h-7.308c-3.222,0-8.021.5-9.671-3.513a9.95,9.95,0,0,1-.677-2.667c.019.027,1.894,2.593,8.1,2.98C181.673,447.833,189.077,447.915,190.149,445.392Z" transform="translate(37.218 146.025)" fill="#fff" fill-rule="evenodd"/>
    <path id="Path_2541" data-name="Path 2541" d="M186.46,445.141c.222,2.99-.927,5.252-5.153,5.252h-4.028a7.826,7.826,0,0,0,2.3-3.039C183.038,447.2,185.831,446.619,186.46,445.141Z" transform="translate(40.907 146.277)" fill="#d9d4d6" fill-rule="evenodd"/>
    <path id="Path_2542" data-name="Path 2542" d="M172.934,144.89s-28.165,19.762-30.738,87.89c0,0-.128,1.389.576,1.5s13.455-36.367,21.665-42.851A2.2,2.2,0,0,0,165.2,189c-.542-1.459-4.486-4.271-6.326-5.3s5.191.053,7.729,1.405,4.215,0,5.892-2.539-.573-31.343,6.521-35.883a.7.7,0,0,0-.118-.758,28.627,28.627,0,0,0-4.432-1.486A1.923,1.923,0,0,0,172.934,144.89Z" transform="translate(27.882 34.668)" fill="#fff" fill-rule="evenodd"/>
    <path id="Path_2543" data-name="Path 2543" d="M146.453,140.957s.237,6.018,4.926,8.134a1.073,1.073,0,0,1,.236,1.821c-1.046,1.175-2.594,5.792-3.066,7.865s-6.257-8.435-5.849-14.895C142.7,143.882,144.872,141.381,146.453,140.957Z" transform="translate(28.065 33.381)" fill="#ff3900" fill-rule="evenodd"/>
    <path id="Path_2544" data-name="Path 2544" d="M166.822,265.831a33.947,33.947,0,0,1,6.883-2.064,30.087,30.087,0,0,0,9.7-3.3c2.4-1.453,4.743,4.3,4.829,4.894a13.215,13.215,0,0,1-1.193,3.16,13.751,13.751,0,0,0-3.54,4.293,13.5,13.5,0,0,1-4.083,4.574c-.182-.126-.388-.25-.613-.376A39.946,39.946,0,0,1,166.822,265.831Z" transform="translate(37.026 77.648)" fill="#f4ad85" fill-rule="evenodd"/>
    <path id="Path_2545" data-name="Path 2545" d="M168.26,264.548a16.272,16.272,0,0,1-4.185.81c-2.464.17-.686,5.21,3.344,4.622s7.108-1.43,6.92-3.414S173.112,262.457,168.26,264.548Z" transform="translate(35.588 78.931)" fill="#f4ad85" fill-rule="evenodd"/>
    <path id="Path_2546" data-name="Path 2546" d="M176.022,269.067c-3.344,1.811-4.451,1.215-4.92.184a5.89,5.89,0,0,1-1.618.808,38.172,38.172,0,0,0,8.33,6.719c.074.044.149.085.219.13.141.081.273.165.4.245a13.531,13.531,0,0,0,4.081-4.574,13.751,13.751,0,0,1,3.54-4.293c-.479-1.407-2.284-5.7-4.212-6.953a3.2,3.2,0,0,1-.584-.473c-.521.259-1.094.51-1.695.753-.051.022-.1.042-.155.062a8.963,8.963,0,0,1,.133,1.144,7.562,7.562,0,0,1-.045,1.393A6.214,6.214,0,0,1,176.022,269.067Z" transform="translate(38.014 77.882)" fill="#ed9072" fill-rule="evenodd"/>
    <path id="Path_2547" data-name="Path 2547" d="M171.907,268.444a5.89,5.89,0,0,0,1.618-.808c-.424-.927-.332-2.2-.888-2.4-.517-.189-1.141.74-2.258,1.514a5.063,5.063,0,0,1-3.111.957,9.234,9.234,0,0,1-4.312-1.4,3.859,3.859,0,0,0,4.462,3.11c.391-.058.776-.117,1.152-.18A21.1,21.1,0,0,0,171.907,268.444Z" transform="translate(35.59 79.496)" fill="#ed9072" fill-rule="evenodd"/>
    <path id="Path_2548" data-name="Path 2548" d="M184.887,157.725s-2.04-7.973,3.211-2.8,33.009,82.846,32.565,90.894-28.173,59.476-37.12,65.515c0,0-1.005.614-1.564-.839s-1.267-6.846-3.335-8.077-1.006-2.741.839-4.416,18.373-41.392,21.166-51.344-21.467-45.614-24.15-52.324S170.238,168.176,184.887,157.725Z" transform="translate(39.712 37.918)" fill="#f2f0f0" fill-rule="evenodd"/>
    <path id="Path_2549" data-name="Path 2549" d="M200.871,241.513c1.9-6.778-8.744-25.481-16.574-38.84l-2.6-4.427a97.276,97.276,0,0,1-4.973-9.056c-.208-.52-.424-1.116-.632-1.778-.314-.994-.621-2.138-.89-3.4-.391-1.833-1.6-2.239-1.734-4.458,1.037-3.144,3.3-13.267,4.588-12.46s1.962,8.755,2.552,10.614c.469,1.489,1.042,3.553,2.048,6.472.343,1,.739,2.094,1.2,3.3.764,2.006,1.708,4.318,2.892,6.986,1.634,3.668,3.72,8.009,6.422,13.152,13.641,25.937,7.257,35.3,7.257,35.3.174-.494.324-.963.447-1.4Zm19.962-1.888c-.086.184-21.218,45.7-31.089,52.18-4.288,2.815-7.581,2.352-9.927.926-.044.052-.081.1-.112.126-1.846,1.676-2.908,3.187-.839,4.416s2.775,6.627,3.335,8.077,1.564.839,1.564.839c8.944-6.04,36.673-57.467,37.12-65.515A7.026,7.026,0,0,0,220.834,239.625Z" transform="translate(39.491 43.065)" fill="#cecbcb" fill-rule="evenodd"/>
    <rect id="Rectangle_873" data-name="Rectangle 873" width="6.276" height="15.112" transform="translate(138.552 113.89) rotate(-17.977)" fill="#231f20"/>
    <path id="Path_2550" data-name="Path 2550" d="M126.943,104.7a10.516,10.516,0,1,1-9.37,11.548A10.518,10.518,0,0,1,126.943,104.7Z" transform="translate(18.726 19.903)" fill="#e37b64" fill-rule="evenodd"/>
    <path id="Path_2551" data-name="Path 2551" d="M179.2,99.26a10.514,10.514,0,1,1-9.368,11.546A10.513,10.513,0,0,1,179.2,99.26Z" transform="translate(38.12 17.884)" fill="#e37b64" fill-rule="evenodd"/>
    <path id="Path_2552" data-name="Path 2552" d="M153.5,63.623h0a36.124,36.124,0,0,1,39.555,32.1l3.389,32.556a36.124,36.124,0,0,1-32.093,39.553h0a36.124,36.124,0,0,1-39.555-32.094L121.4,103.177A36.123,36.123,0,0,1,153.5,63.623Z" transform="translate(20.096 4.607)" fill="#f4ad85" fill-rule="evenodd"/>
    <path id="Path_2553" data-name="Path 2553" d="M163.137,64.752A36.129,36.129,0,0,1,187.73,95.224l3.392,32.561a36.122,36.122,0,0,1-32.1,39.551h0a35.677,35.677,0,0,1-13.109-1.061c35.072-3.38,36.374-28.6,34.4-47.543-2.177-20.928-9.348-25.791-16.749-25.021s-27.173,2.829-27.173,2.829-7.241-21.339,20.6-30.081C159.163,65.776,161.2,65.211,163.137,64.752Z" transform="translate(25.417 5.098)" fill="#ed9072" fill-rule="evenodd"/>
    <path id="Path_2554" data-name="Path 2554" d="M164.287,73.934l-4.939,7.027s-7.455-2.583-14.038.439,7.851-12.151,8.66-12.236S164.287,73.934,164.287,73.934Z" transform="translate(28.405 6.735)" fill="#231f20" fill-rule="evenodd"/>
    <path id="Path_2555" data-name="Path 2555" d="M190.922,98.716s.7,6.694,1.146,11.021,1.374,5.524,3.7,6.874c0,0-.891,4.319,1.618,5.051,0,0-.525-5.058,6.106-4.119,0,0,13.81-62.231-35.366-57.111,0,0-10.932-11.389-32.763-9.117-27.139,2.826-19.155,30.869-17.407,48.88.768,7.916,2.959,14.319-2.2,15.365,0,0,3.413.169,8.241-.008,29.212-1.069,26-9.3,35.936-30.822,3.374-7.308,7.783-6.869,9.837,2.966C169.771,87.7,189.513,85.64,190.922,98.716Z" transform="translate(17.982 0)" fill="#58595b" fill-rule="evenodd"/>
    <path id="Path_2556" data-name="Path 2556" d="M164.6,56.6a35.773,35.773,0,0,0-4.8-2.689c-2.022,22.814-30.358,25.388-44.18,25.274.37,5.733,1.3,11.59,1.942,16.838C151.648,92.686,161.715,68.35,164.6,56.6Z" transform="translate(18.025 1.074)" fill="#6d6e71" fill-rule="evenodd"/>
    <path id="Path_2557" data-name="Path 2557" d="M190.856,94.229l.931,8.952a117.083,117.083,0,0,0,13.367-11.311c-.381-10.083-2.772-21.493-10.412-28.767-.78,7.752-6.246,16.435-25.037,20.105,0,0,19.742-2.055,21.151,11.02Zm-72.08,8.472c.533,4.464.429,7.661-3.085,8.372,0,0,3.413.169,8.241-.008,29.212-1.068,26-9.3,35.936-30.822,1.717-3.719,3.7-5.43,5.509-4.92h0c-9.649-3.661-9.986,17.019-27.967,23.272A97.928,97.928,0,0,1,118.776,102.7Z" transform="translate(18.049 4.487)" fill="#414042" fill-rule="evenodd"/>
    <path id="Path_2558" data-name="Path 2558" d="M170.651,93.412s.7,6.694,1.146,11.023,1.371,5.523,3.7,6.872c0,0-.891,4.319,1.618,5.051,0,0-.525-5.06,6.106-4.119,0,0,6.735-30.375-5.975-46.934.25.71,6.487,19-7.115,25.68A11.686,11.686,0,0,1,170.651,93.412Z" transform="translate(38.254 5.303)" fill="#231f20" fill-rule="evenodd"/>
    <path id="Path_2559" data-name="Path 2559" d="M133.171,109.749h0a3.539,3.539,0,0,1,3.874,3.141l.476,4.573a3.535,3.535,0,0,1-3.144,3.871h0a3.535,3.535,0,0,1-3.869-3.141l-.477-4.573A3.537,3.537,0,0,1,133.171,109.749Z" transform="translate(23.364 21.792)" fill="#231f20" fill-rule="evenodd"/>
    <path id="Path_2560" data-name="Path 2560" d="M160.566,106.9h0a3.537,3.537,0,0,1,3.875,3.141l.474,4.573a3.534,3.534,0,0,1-3.141,3.872h0a3.535,3.535,0,0,1-3.869-3.143l-.477-4.573A3.535,3.535,0,0,1,160.566,106.9Z" transform="translate(33.532 20.733)" fill="#231f20" fill-rule="evenodd"/>
    <path id="Path_2561" data-name="Path 2561" d="M128.5,104.009l9.909-1.031a1.922,1.922,0,0,1,2.1,1.707h0a1.922,1.922,0,0,1-1.706,2.1l-9.912,1.031a1.922,1.922,0,0,1-2.1-1.706h0A1.926,1.926,0,0,1,128.5,104.009Z" transform="translate(22.166 19.282)" fill="#231f20" fill-rule="evenodd"/>
    <path id="Path_2562" data-name="Path 2562" d="M155.9,101.157l9.911-1.031a1.919,1.919,0,0,1,2.1,1.707h0a1.922,1.922,0,0,1-1.708,2.1l-9.908,1.032a1.922,1.922,0,0,1-2.1-1.707h0A1.922,1.922,0,0,1,155.9,101.157Z" transform="translate(32.334 18.223)" fill="#231f20" fill-rule="evenodd"/>
    <g id="Group_751" data-name="Group 751" transform="translate(151.018 140.943)">
      <path id="Path_2563" data-name="Path 2563" d="M132.963,120.015a5.212,5.212,0,1,1-4.643,5.723A5.212,5.212,0,0,1,132.963,120.015Z" transform="translate(-128.292 -115.345)" fill="#e37b64" fill-rule="evenodd"/>
      <path id="Path_2564" data-name="Path 2564" d="M165.484,116.63a5.211,5.211,0,1,1-4.644,5.722A5.21,5.21,0,0,1,165.484,116.63Z" transform="translate(-116.223 -116.601)" fill="#e37b64" fill-rule="evenodd"/>
    </g>
    <path id="Path_2565" data-name="Path 2565" d="M144.2,126.848a1.57,1.57,0,0,0-3.111.418,7.571,7.571,0,0,0,15.007-2.017,1.57,1.57,0,0,0-3.111.418,4.432,4.432,0,1,1-8.785,1.181Z" transform="translate(27.47 27.046)" fill="#bc614f" fill-rule="evenodd"/>
    <path id="Path_2566" data-name="Path 2566" d="M67.061,162.585c0,2.286,21.72,80.213,22.861,84.785s3.431,5.142,10.957,5.047,50.014-.476,54.4-.095,10.193-2.287,8.763-6.573-21.526-80.5-22.287-82.022-3.047-5.526-10.576-4.955c-7.168.546-38.378.053-58.206.171C70.633,158.956,67.061,159.152,67.061,162.585Z" transform="translate(0 39.973)" fill="#183257" fill-rule="evenodd"/>
    <path id="Path_2567" data-name="Path 2567" d="M87.815,250.426c1.526,1.791,4.229,2.059,9.569,1.991,7.525-.095,50.011-.476,54.395-.095s10.193-2.287,8.763-6.575-21.523-80.5-22.287-82.02-3.047-5.526-10.573-4.954c-.806.06-1.914.108-3.27.148.258.01,8.509.442,12.056,15.088,3.424,14.126,24.955,73.6-48.654,76.417ZM76.484,211.112l3.026-2.578,7.5-2.116s7.962,12.346.871,20.367a23.562,23.562,0,0,0-4.785,8.35C81.286,228.56,78.933,220.018,76.484,211.112Z" transform="translate(3.497 39.973)" fill="#152548" fill-rule="evenodd"/>
    <path id="Path_2568" data-name="Path 2568" d="M75.972,194.008s6.673-3.16,10.532-1.931,2.216,17.4-.245,20.028a5.062,5.062,0,0,1-7.8-.329C76.981,209.561,69.756,197.331,75.972,194.008Z" transform="translate(2.385 52.249)" fill="#f4ad85" fill-rule="evenodd"/>
    <path id="Path_2569" data-name="Path 2569" d="M84.629,191.843a5.893,5.893,0,0,1,1,.218c3.858,1.229,2.217,17.4-.244,20.027a5.062,5.062,0,0,1-7.8-.329c-.348-.52-1.006-1.586-1.734-2.959C85.135,206.4,85.413,197.4,84.629,191.843Z" transform="translate(3.261 52.267)" fill="#ed9072" fill-rule="evenodd"/>
  </g>
</svg>
