<svg xmlns="http://www.w3.org/2000/svg" width="16.993" height="25.66" viewBox="0 0 16.993 25.66"><path d="M35.493,33.907a8.551,8.551,0,0,0-5.721-8.043V20.312h.566a.6.6,0,0,0,.566-.68V17.366a.609.609,0,0,0-.566-.566H23.655a.581.581,0,0,0-.566.566v2.379a.609.609,0,0,0,.566.566h.566V25.92a8.5,8.5,0,1,0,11.272,7.987ZM29.772,17.933v1.246H24.164V17.933ZM24.9,26.826a.563.563,0,0,0,.4-.566V20.312h3.342v.566h-.453a.566.566,0,0,0,0,1.133h.453v1.983h-.453a.566.566,0,0,0,0,1.133h.453V26.26a.682.682,0,0,0,.4.566A7.483,7.483,0,0,1,34.3,33.283a19.832,19.832,0,0,0-7.93.736c-2.322.623-4.078,1.02-6.741-.4A7.537,7.537,0,0,1,24.9,26.826Zm2.1,14.5a7.335,7.335,0,0,1-7.307-6.4,8.4,8.4,0,0,0,3.455.793,13.511,13.511,0,0,0,3.569-.623,19.164,19.164,0,0,1,7.7-.68A7.461,7.461,0,0,1,27,41.327Z" transform="translate(-18.5 -16.8)" fill="#32c995"/></svg>